<?xml version="1.0" encoding="utf-8"?>
<svg version="1.1" id="svg-draw" xmlns="http://www.w3.org/2000/svg" xmlns:xlink="http://www.w3.org/1999/xlink" x="0px" y="0px" viewBox="0 0 183.7 113.8"
	 style="enable-background:new 0 0 183.7 113.8;" xml:space="preserve">
<style type="text/css">
	.st0{fill:#FFD033;}
	.st1{fill:#879C2A;}
	.st2{fill:#E8D6BC;}
</style>
<g id="svg-logo" transform="matrix(0.8012567318644462,0,0,0.8012567318644462,254.53975098381136,84.32222682539629)">
	<title>logo整理1月9日（安）</title>
	<g>
		<path class="st0" d="M-247.1-2.8c7.4,9.6,19.7,14.8,34.5,9.9c12.2-4,16.9-12.5,26.5-24.1c10.1-11.6,21.6-22.1,34.4-30.7
			c14-9.5,42.6-18.4,52.5-22.3c9.9-3.9,13.9-13.8-6-8.4c-41.2,11.1-75.8,50-80.1,55.1c0,0-6,4.6-30.4,12.6
			C-240.3-2.6-247.1-2.8-247.1-2.8z"/>
		<path class="st1" d="M-298.1-67.9c10.1,3.5,18.5,10.5,23.6,19.7c-6.2-4.7-12.8-8.8-19.6-12.3c-4.4-2.2-8.7-4.4-13.3-6.2
			c6.8,5.6,14.3,10.5,22.3,14.6c3.7,1.9,7.3,3.6,10.6,5c-5.5,0.2-11-0.4-16.2-2.2c-10.4-3.7-19.1-11.1-24.3-20.8
			C-309.3-70.4-303.6-69.8-298.1-67.9z"/>
		<path class="st1" d="M-273.4-79.5c4.8,3.9,7.1,10.3,6.8,17.6c-1.9-4.1-4.3-8.1-7.1-11.6c-1.7-2.2-3.6-4.3-5.6-6.2
			c1.9,4.8,4.6,9.4,7.8,13.5c1.5,1.8,2.9,3.5,4.5,5.1c-3.2-0.4-6.3-1.7-8.7-3.7c-5.1-4.4-7.3-11-6.9-18.6
			C-279.2-82.9-276-81.6-273.4-79.5z"/>
		<path class="st2" d="M-298-40.5l20.5,5.9c8.4,36.6,44.9,59.6,81.5,51.2c7.6-1.8,14.9-4.8,21.5-9c-10.1,6.9-21.7,11.5-33.8,13.2
			C-249.7,26.9-288.7,0.1-298-40.5z"/>
		<path class="st1" d="M-152-42c3.1-1.3,6.3-3,9.2-4.8c-3.8,38.6-36.3,68.2-75.1,68.2c-2.1,0-4.3-0.1-6.3-0.2
			C-189,18.2-159.7-7.4-152-42z"/>
		<ellipse class="st2" cx="-239.7" cy="-75.1" rx="2.9" ry="2.9"/>
		<path class="st2" d="M-239.8-64.7L-239.8-64.7c-14.2-1.9-27.3,8.1-29.2,22.3c-0.6,3.8-0.2,7.7,1,11.4c-1.2-9.3,4.1-18.1,12.9-21.3
			c-1,7.7,4.5,14.9,12.3,15.8c7.7,1,14.9-4.5,15.8-12.3c0.9-7.4-4-14.3-11.4-15.7C-238.8-64.6-239.4-64.6-239.8-64.7z"/>
		<path class="st2" d="M-249.5-79.8c-0.2-4.1-3.8-7.4-8.1-7.1c-4.1,0.2-7.4,3.8-7.1,8.1c0.4,5.6,6.7,9.6,4.5,14.3
			C-260.2-64.5-249-70.6-249.5-79.8z"/>
	</g>
</g>
<g id="svg-atext" transform="matrix(1,0,0,1,334.5,249.5)">
</g>
<g id="svg-ghost" transform="matrix(1,0,0,1,0,0)">
</g>
</svg>
