<svg xmlns="http://www.w3.org/2000/svg" viewBox="0 0 166.68 138.92"><defs><style>.cls-1{opacity:0.11;}</style></defs><title>资源 1</title><g id="图层_2" data-name="图层 2"><g id="图层_1-2" data-name="图层 1"><path class="cls-1" d="M157.17,77.18H116.61a9.53,9.53,0,0,1-9.39-8.13V41.24l0-.15a9.57,9.57,0,0,1,9.41-8.27h12.47a9.57,9.57,0,0,0,9.53-9.53V9.55A9.57,9.57,0,0,0,129.07,0H115.36a9.58,9.58,0,0,0-9.55,9.55v12.6a9.6,9.6,0,0,1-9.55,9.55H70.48a9.58,9.58,0,0,1-9.55-9.55V9.55A9.58,9.58,0,0,0,51.38,0H37.65a9.6,9.6,0,0,0-9.57,9.55V23.3a9.58,9.58,0,0,0,9.57,9.53H50.1a9.54,9.54,0,0,1,9.39,8.27c0,.07,0,.08,0,.15V69.06a9.48,9.48,0,0,1-9.36,8.12H9.53A9.57,9.57,0,0,0,0,86.73v42.64a9.55,9.55,0,0,0,9.53,9.54H52.2a9.58,9.58,0,0,0,9.54-9.54V88.83a9.57,9.57,0,0,1,9.54-9.54H95.41A9.56,9.56,0,0,1,105,88.83v40.54a9.58,9.58,0,0,0,9.56,9.54h42.66a9.54,9.54,0,0,0,9.51-9.54V86.73a9.53,9.53,0,0,0-9.52-9.55h0Z"/></g></g></svg>